<?xml version="1.0" encoding="utf-8"?>
<svg xmlns="http://www.w3.org/2000/svg" viewBox="0 0 100 100" width="400" height="400">
  <path d="M20.5 19 A 0.50005 0.50005 0 0 0 20.078125 19.234375L20.076172 19.234375L17.097656 24L15 24C12.243 24 10 26.243 10 29L10 73C10 75.757 12.243 78 15 78L44.380859 78C45.011859 79.067 46.683 81 50.5 81C54.317 81 55.988141 79.067 56.619141 78L86 78C88.757 78 91 75.757 91 73L91 29C91 26.243 88.757 24 86 24L83.902344 24L80.939453 19.259766 A 0.50005 0.50005 0 0 0 80.923828 19.234375 A 0.50005 0.50005 0 0 0 80.5 19C69.454545 19 61.902453 20.50675 57.099609 22.023438C52.733931 23.402073 50.851523 24.677747 50.5 24.923828C50.148477 24.677747 48.266069 23.402073 43.900391 22.023438C39.097547 20.50675 31.545455 19 20.5 19 z M 21 20.017578C31.659959 20.065678 38.980015 21.517744 43.599609 22.976562C47.666869 24.260961 49.544286 25.454802 50 25.767578L50 59.5 A 0.50005 0.50005 0 1 0 51 59.5L51 25.767578C51.455714 25.454802 53.333131 24.260961 57.400391 22.976562C62.019985 21.517743 69.340041 20.065683 80 20.017578L80 66.017578C69.24676 66.065678 61.828657 67.531589 57.105469 69.023438 A 0.50005 0.50005 0 1 0 57.408203 69.976562C62.069874 68.504147 69.444057 67.025655 80.267578 67.003906L84.431641 72L55.496094 72L50.650391 72C50.290605 71.748729 48.254985 70.398572 43.900391 69.023438C39.176124 67.531564 31.75251 66.065673 21 66.017578L21 20.017578 z M 20 21.244141L20 66.318359L16 71.117188L16 27.642578L20 21.244141 z M 81 21.244141L85 27.642578L85 71.117188L81 66.318359L81 21.244141 z M 26.476562 25 A 0.50005 0.50005 0 0 0 26.472656 26C30.303015 26.207826 33.595416 26.635084 36.408203 27.162109 A 0.50005 0.50005 0 1 0 36.591797 26.179688C33.736578 25.644712 30.400985 25.210174 26.527344 25 A 0.50005 0.50005 0 0 0 26.476562 25 z M 74.472656 25C74.031058 25.02414 73.596649 25.051841 73.169922 25.082031 A 0.50033008 0.50033008 0 1 0 73.242188 26.080078C73.663455 26.050272 74.090942 26.023858 74.527344 26 A 0.50074719 0.50074719 0 0 0 74.472656 25 z M 70.757812 25.294922 A 0.50005 0.50005 0 0 0 70.722656 25.298828C70.722656 25.298828 67.785714 25.630531 67.349609 25.693359 A 0.50022348 0.50022348 0 1 0 67.492188 26.683594C67.764083 26.644424 70.835938 26.291016 70.835938 26.291016 A 0.50005 0.50005 0 0 0 70.757812 25.294922 z M 15 26L15.847656 26L15.076172 27.234375 A 0.50005 0.50005 0 0 0 15 27.5L15 72.5 A 0.50005 0.50005 0 0 0 15.5 73L45.183594 73C45.327232 73.313499 45.58129 73.788321 46.146484 74.353516C46.975052 75.182083 48.375 76 50.5 76C52.625 76 54.024948 75.182083 54.853516 74.353516C55.41871 73.788321 55.672768 73.313499 55.816406 73L85.5 73 A 0.50005 0.50005 0 0 0 86 72.5L86 27.5 A 0.50005 0.50005 0 0 0 85.923828 27.234375L85.152344 26L86 26C87.654 26 89 27.346 89 29L89 73C89 74.654 87.654 76 86 76L56 76C55.579 76 55.199641 76.275875 55.056641 76.671875C55.021641 76.766875 54.166 79 50.5 79C46.834 79 45.978266 76.766594 45.947266 76.683594C45.811266 76.274594 45.431 76 45 76L15 76C13.346 76 12 74.654 12 73L12 29C12 27.346 13.346 26 15 26 z M 64.369141 26.216797 A 0.50005 0.50005 0 0 0 64.285156 26.228516L61.400391 26.818359 A 0.50005 0.50005 0 0 0 61.384766 26.822266C58.931609 27.407071 56.922449 28.045937 55.328125 28.628906 A 0.50018397 0.50018397 0 1 0 55.671875 29.568359C57.2295 28.99881 59.195319 28.372803 61.599609 27.798828L61.607422 27.796875C61.610522 27.796129 61.612134 27.795722 61.615234 27.794922L64.484375 27.207031 A 0.50005 0.50005 0 0 0 64.369141 26.216797 z M 39.466797 26.806641 A 0.50005 0.50005 0 0 0 39.384766 27.794922C40.464897 28.052804 41.454066 28.319459 42.357422 28.587891 A 0.50024149 0.50024149 0 1 0 42.642578 27.628906C41.721934 27.355338 40.713103 27.084383 39.615234 26.822266 A 0.50005 0.50005 0 0 0 39.466797 26.806641 z M 44.464844 28.246094 A 0.50005 0.50005 0 0 0 44.337891 29.220703C44.68365 29.338937 45.017538 29.454971 45.328125 29.568359 A 0.50018397 0.50018397 0 1 0 45.671875 28.628906C45.352462 28.512295 45.01235 28.393204 44.662109 28.273438 A 0.50005 0.50005 0 0 0 44.464844 28.246094 z M 26.476562 32 A 0.50005 0.50005 0 0 0 26.472656 33C30.303015 33.207826 33.595416 33.635084 36.408203 34.162109 A 0.50005 0.50005 0 1 0 36.591797 33.179688C33.736578 32.644713 30.400985 32.210174 26.527344 32 A 0.50005 0.50005 0 0 0 26.476562 32 z M 74.472656 32C74.031058 32.02414 73.596649 32.051841 73.169922 32.082031 A 0.50033008 0.50033008 0 1 0 73.242188 33.080078C73.663455 33.050272 74.090942 33.023858 74.527344 33 A 0.50074719 0.50074719 0 0 0 74.472656 32 z M 70.757812 32.294922 A 0.50005 0.50005 0 0 0 70.722656 32.298828C70.722656 32.298828 67.785714 32.630531 67.349609 32.693359 A 0.50022348 0.50022348 0 1 0 67.492188 33.683594C67.764083 33.644424 70.835938 33.291016 70.835938 33.291016 A 0.50005 0.50005 0 0 0 70.757812 32.294922 z M 64.369141 33.216797 A 0.50005 0.50005 0 0 0 64.285156 33.228516L61.400391 33.818359 A 0.50005 0.50005 0 0 0 61.384766 33.822266C58.931609 34.407071 56.922449 35.045937 55.328125 35.628906 A 0.50018397 0.50018397 0 1 0 55.671875 36.568359C57.2295 35.99881 59.195319 35.372803 61.599609 34.798828L61.607422 34.796875C61.610522 34.796129 61.612134 34.795722 61.615234 34.794922L64.484375 34.207031 A 0.50005 0.50005 0 0 0 64.369141 33.216797 z M 39.466797 33.806641 A 0.50005 0.50005 0 0 0 39.384766 34.794922C40.464897 35.052804 41.454066 35.319459 42.357422 35.587891 A 0.50024149 0.50024149 0 1 0 42.642578 34.628906C41.721934 34.355338 40.713103 34.084383 39.615234 33.822266 A 0.50005 0.50005 0 0 0 39.466797 33.806641 z M 44.464844 35.246094 A 0.50005 0.50005 0 0 0 44.337891 36.220703C44.68365 36.338937 45.017538 36.454971 45.328125 36.568359 A 0.50018397 0.50018397 0 1 0 45.671875 35.628906C45.352462 35.512295 45.01235 35.393203 44.662109 35.273438 A 0.50005 0.50005 0 0 0 44.464844 35.246094 z M 26.476562 39 A 0.50005 0.50005 0 0 0 26.472656 40C30.303015 40.207826 33.595416 40.635084 36.408203 41.162109 A 0.50005 0.50005 0 1 0 36.591797 40.179688C33.736578 39.644713 30.400985 39.210174 26.527344 39 A 0.50005 0.50005 0 0 0 26.476562 39 z M 74.472656 39C74.031058 39.02414 73.596649 39.051841 73.169922 39.082031 A 0.50033008 0.50033008 0 1 0 73.242188 40.080078C73.663455 40.050272 74.090942 40.023858 74.527344 40 A 0.50074719 0.50074719 0 0 0 74.472656 39 z M 70.757812 39.294922 A 0.50005 0.50005 0 0 0 70.722656 39.298828C70.722656 39.298828 67.785714 39.630531 67.349609 39.693359 A 0.50022348 0.50022348 0 1 0 67.492188 40.683594C67.764083 40.644424 70.835938 40.291016 70.835938 40.291016 A 0.50005 0.50005 0 0 0 70.757812 39.294922 z M 64.369141 40.216797 A 0.50005 0.50005 0 0 0 64.285156 40.228516L61.400391 40.818359 A 0.50005 0.50005 0 0 0 61.384766 40.822266C58.931609 41.407071 56.922449 42.045937 55.328125 42.628906 A 0.50018397 0.50018397 0 1 0 55.671875 43.568359C57.2295 42.99881 59.195319 42.372803 61.599609 41.798828L61.607422 41.796875C61.610522 41.796129 61.612134 41.795722 61.615234 41.794922L64.484375 41.207031 A 0.50005 0.50005 0 0 0 64.369141 40.216797 z M 39.466797 40.806641 A 0.50005 0.50005 0 0 0 39.384766 41.794922C40.464897 42.052804 41.454066 42.319459 42.357422 42.587891 A 0.50024149 0.50024149 0 1 0 42.642578 41.628906C41.721934 41.355338 40.713103 41.084383 39.615234 40.822266 A 0.50005 0.50005 0 0 0 39.466797 40.806641 z M 44.464844 42.246094 A 0.50005 0.50005 0 0 0 44.337891 43.220703C44.68365 43.338937 45.017538 43.454971 45.328125 43.568359 A 0.50018397 0.50018397 0 1 0 45.671875 42.628906C45.352462 42.512295 45.01235 42.393203 44.662109 42.273438 A 0.50005 0.50005 0 0 0 44.464844 42.246094 z M 26.476562 46 A 0.50005 0.50005 0 0 0 26.472656 47C30.303015 47.207826 33.595416 47.635084 36.408203 48.162109 A 0.50005 0.50005 0 1 0 36.591797 47.179688C33.736578 46.644713 30.400985 46.210174 26.527344 46 A 0.50005 0.50005 0 0 0 26.476562 46 z M 74.472656 46C74.031058 46.02414 73.596649 46.051841 73.169922 46.082031 A 0.50033008 0.50033008 0 1 0 73.242188 47.080078C73.663455 47.050272 74.090942 47.023858 74.527344 47 A 0.50074719 0.50074719 0 0 0 74.472656 46 z M 70.757812 46.294922 A 0.50005 0.50005 0 0 0 70.722656 46.298828C70.722656 46.298828 67.785714 46.630531 67.349609 46.693359 A 0.50022348 0.50022348 0 1 0 67.492188 47.683594C67.764083 47.644424 70.835938 47.291016 70.835938 47.291016 A 0.50005 0.50005 0 0 0 70.757812 46.294922 z M 64.369141 47.216797 A 0.50005 0.50005 0 0 0 64.285156 47.228516L61.400391 47.818359 A 0.50005 0.50005 0 0 0 61.384766 47.822266C58.931609 48.407071 56.922449 49.045937 55.328125 49.628906 A 0.50018397 0.50018397 0 1 0 55.671875 50.568359C57.2295 49.99881 59.195319 49.372803 61.599609 48.798828L61.607422 48.796875C61.610522 48.796129 61.612134 48.795722 61.615234 48.794922L64.484375 48.207031 A 0.50005 0.50005 0 0 0 64.369141 47.216797 z M 39.466797 47.806641 A 0.50005 0.50005 0 0 0 39.384766 48.794922C40.464897 49.052804 41.454066 49.319459 42.357422 49.587891 A 0.50024149 0.50024149 0 1 0 42.642578 48.628906C41.721934 48.355338 40.713103 48.084383 39.615234 47.822266 A 0.50005 0.50005 0 0 0 39.466797 47.806641 z M 44.464844 49.246094 A 0.50005 0.50005 0 0 0 44.337891 50.220703C44.68365 50.338937 45.017538 50.454971 45.328125 50.568359 A 0.50018397 0.50018397 0 1 0 45.671875 49.628906C45.352462 49.512295 45.01235 49.393203 44.662109 49.273438 A 0.50005 0.50005 0 0 0 44.464844 49.246094 z M 26.476562 53 A 0.50005 0.50005 0 0 0 26.472656 54C30.303015 54.207826 33.595416 54.635084 36.408203 55.162109 A 0.50005 0.50005 0 1 0 36.591797 54.179688C33.736578 53.644713 30.400985 53.210174 26.527344 53 A 0.50005 0.50005 0 0 0 26.476562 53 z M 74.472656 53C74.031058 53.02414 73.596649 53.051841 73.169922 53.082031 A 0.50033008 0.50033008 0 1 0 73.242188 54.080078C73.663455 54.050272 74.090942 54.023858 74.527344 54 A 0.50074719 0.50074719 0 0 0 74.472656 53 z M 70.757812 53.294922 A 0.50005 0.50005 0 0 0 70.722656 53.298828C70.722656 53.298828 67.785714 53.630531 67.349609 53.693359 A 0.50022348 0.50022348 0 1 0 67.492188 54.683594C67.764083 54.644424 70.835938 54.291016 70.835938 54.291016 A 0.50005 0.50005 0 0 0 70.757812 53.294922 z M 64.369141 54.216797 A 0.50005 0.50005 0 0 0 64.285156 54.228516L61.400391 54.818359 A 0.50005 0.50005 0 0 0 61.384766 54.822266C58.931609 55.407071 56.922449 56.045937 55.328125 56.628906 A 0.50018397 0.50018397 0 1 0 55.671875 57.568359C57.2295 56.99881 59.195319 56.372803 61.599609 55.798828L61.607422 55.796875C61.610522 55.796129 61.612134 55.795722 61.615234 55.794922L64.484375 55.207031 A 0.50005 0.50005 0 0 0 64.369141 54.216797 z M 39.466797 54.806641 A 0.50005 0.50005 0 0 0 39.384766 55.794922C40.464897 56.052804 41.454066 56.319459 42.357422 56.587891 A 0.50024149 0.50024149 0 1 0 42.642578 55.628906C41.721934 55.355338 40.713103 55.084383 39.615234 54.822266 A 0.50005 0.50005 0 0 0 39.466797 54.806641 z M 44.464844 56.246094 A 0.50005 0.50005 0 0 0 44.337891 57.220703C44.68365 57.338937 45.017538 57.454971 45.328125 57.568359 A 0.50018397 0.50018397 0 1 0 45.671875 56.628906C45.352462 56.512295 45.01235 56.393203 44.662109 56.273438 A 0.50005 0.50005 0 0 0 44.464844 56.246094 z M 26.476562 60 A 0.50005 0.50005 0 0 0 26.472656 61C30.303015 61.207826 33.595416 61.635084 36.408203 62.162109 A 0.50005 0.50005 0 1 0 36.591797 61.179688C33.736578 60.644713 30.400985 60.210174 26.527344 60 A 0.50005 0.50005 0 0 0 26.476562 60 z M 74.472656 60C74.031058 60.02414 73.596649 60.051841 73.169922 60.082031 A 0.50033008 0.50033008 0 1 0 73.242188 61.080078C73.663455 61.050272 74.090942 61.023858 74.527344 61 A 0.50074719 0.50074719 0 0 0 74.472656 60 z M 70.757812 60.294922 A 0.50005 0.50005 0 0 0 70.722656 60.298828C70.722656 60.298828 67.785714 60.630531 67.349609 60.693359 A 0.50022348 0.50022348 0 1 0 67.492188 61.683594C67.764083 61.644424 70.835938 61.291016 70.835938 61.291016 A 0.50005 0.50005 0 0 0 70.757812 60.294922 z M 64.369141 61.216797 A 0.50005 0.50005 0 0 0 64.285156 61.228516L61.400391 61.818359 A 0.50005 0.50005 0 0 0 61.384766 61.822266C58.931609 62.407071 56.922449 63.045937 55.328125 63.628906 A 0.50018397 0.50018397 0 1 0 55.671875 64.568359C57.2295 63.99881 59.195319 63.372803 61.599609 62.798828L61.607422 62.796875C61.610522 62.796129 61.612134 62.795722 61.615234 62.794922L64.484375 62.207031 A 0.50005 0.50005 0 0 0 64.369141 61.216797 z M 39.466797 61.806641 A 0.50005 0.50005 0 0 0 39.384766 62.794922C40.464897 63.052804 41.454066 63.319459 42.357422 63.587891 A 0.50024149 0.50024149 0 1 0 42.642578 62.628906C41.721934 62.355338 40.713103 62.084383 39.615234 61.822266 A 0.50005 0.50005 0 0 0 39.466797 61.806641 z M 50.492188 61.992188 A 0.50005 0.50005 0 0 0 50 62.5L50 64.5 A 0.50005 0.50005 0 1 0 51 64.5L51 62.5 A 0.50005 0.50005 0 0 0 50.492188 61.992188 z M 44.464844 63.246094 A 0.50005 0.50005 0 0 0 44.337891 64.220703C44.68365 64.338937 45.017538 64.454971 45.328125 64.568359 A 0.50018397 0.50018397 0 1 0 45.671875 63.628906C45.352462 63.512295 45.01235 63.393203 44.662109 63.273438 A 0.50005 0.50005 0 0 0 44.464844 63.246094 z M 50.492188 66.992188 A 0.50005 0.50005 0 0 0 50 67.5L50 68.5 A 0.50005 0.50005 0 1 0 51 68.5L51 67.5 A 0.50005 0.50005 0 0 0 50.492188 66.992188 z M 20.732422 67.003906C31.555075 67.025656 38.937043 68.504173 43.599609 69.976562C45.958159 70.721368 47.607657 71.453725 48.669922 72L45.578125 72 A 0.50005 0.50005 0 0 0 45.478516 71.994141 A 0.50005 0.50005 0 0 0 45.419922 72L16.568359 72L20.732422 67.003906 z M 46.330078 73L50.478516 73L50.527344 73L54.669922 73C54.538111 73.198386 54.378568 73.414401 54.146484 73.646484C53.475052 74.317917 52.375 75 50.5 75C48.625 75 47.524948 74.317917 46.853516 73.646484C46.621432 73.414401 46.461889 73.198386 46.330078 73 z" fill="#FFFFFF" />
</svg>